<mxfile host="app.diagrams.net" modified="2023-02-02T09:26:52.332Z" agent="5.0 (Windows NT 10.0; Win64; x64) AppleWebKit/537.36 (KHTML, like Gecko) Chrome/109.0.0.0 Safari/537.36" etag="kJ-SeunJSUo5IU-E6b37" version="20.8.15" type="github">
  <diagram name="Page-1" id="sljPKBfTdFx07RPNkE-a">
    <mxGraphModel dx="1434" dy="739" grid="1" gridSize="10" guides="1" tooltips="1" connect="1" arrows="1" fold="1" page="1" pageScale="1" pageWidth="850" pageHeight="1100" math="0" shadow="0">
      <root>
        <mxCell id="0" />
        <mxCell id="1" parent="0" />
        <mxCell id="IrCGTTobbULhzL_yWjzC-6" style="edgeStyle=orthogonalEdgeStyle;rounded=0;orthogonalLoop=1;jettySize=auto;html=1;startArrow=none;" edge="1" parent="1" source="IrCGTTobbULhzL_yWjzC-7" target="IrCGTTobbULhzL_yWjzC-4">
          <mxGeometry relative="1" as="geometry">
            <Array as="points">
              <mxPoint x="180" y="90" />
              <mxPoint x="180" y="90" />
            </Array>
          </mxGeometry>
        </mxCell>
        <mxCell id="IrCGTTobbULhzL_yWjzC-1" value="Actor" style="shape=umlActor;verticalLabelPosition=bottom;verticalAlign=top;html=1;outlineConnect=0;" vertex="1" parent="1">
          <mxGeometry x="70" y="60" width="30" height="60" as="geometry" />
        </mxCell>
        <mxCell id="IrCGTTobbULhzL_yWjzC-4" value="" style="shape=image;verticalLabelPosition=bottom;labelBackgroundColor=default;verticalAlign=top;aspect=fixed;imageAspect=0;image=data:image/png,iVBORw0KGgoAAAANSUhEUgAAAgAAAAIACAYAAAD0eNT6AAAACXBIWXMAAAsTAAALEwEAmpwYAAAgAElEQVR4nO2dCZgcVdX+exKWzHRVD0lEjAZjMnWrJ4MEpPvemkR0cEFFwD2uqLh8IIqIK66fuO8Koh8fbn/lU1EUBVFEUUHFHVkkIKKAyI7IJhCWZPyfUz2ELDOT6enqfm9Vvb/neZ8shKTqnHPPvVV17zmVCiHEd/qqy1Y+uDpkd6nW3eOCKHl2ELtXhMa+MYzd+4LYHhMY93/y8++Izghj+4vA2HNC4/4sf+4y+W83ya9vvl/y3++SP/efzbR+4z/T+nPuH+n/H9s/yo+/079bfv59+XtPlL/jOPn3PyJ/99vk9w6pGfeCMG7uU4ubdt5Qc+dKFG2PNhohhBDiLQsiV9OJXSdPmXT/SybV98hk+2WZWE+Xn18gk+21Mtmum2TC9l5yH7fqIkQXJPLjN+WePhHWk9cFpvmsmmm4geHGIjFBH9oHhBBCSFfQiU4mv8eEUfIymQw/IJPhN/QJXSbIW9CTNFzG3SO2uSSI7Q/EHkfXjDtUF0Ph8sRUGo1t0b4jhBBCtsrgrnvOD+Jkz8AkB+lkNvE6/gb4JJtXGXtf6xOEO1UWCh8WvWRwOGlUFo/2o31NCCGklKyeO2iay8Koub9MUkemE1TsboRPmGWRLAxkYXVRYOzx6ScFWXTttGJFFR0VhBBCCsZg7JbqJjeZcI6Syf7XojvhkyC1mXSfhL043T8R20MGouajKmNj26BjhxBCSF6Iou31e73o7TKZfE8mlevxkxs1G4kP75Affy4Lgo+G9eRp+okGHV6EEEI8YdGixkD63T62R4Stb/aTHZGjCiLdU9A6wuhekh5XJIQQUhZWzw1NkgTGvlOfDmUiuBc9KVFAGXehxMIn9eSBLgbR0UkIISRDdli+cklg3MHy5PftiQI3+ImH8lF3h8b+LIjtW9M9BIQQQnLHHD0ulu7Q14p4sRv3YHKhcid7g540COpu9Y4jYwE6qAkhhEzG4tH+IHbP0F3gIY/kURlLT37optAgtq8M4saD0OFOCCHlRiZ9PYufPqUZezt6kqDKIrsuNO5srUHQX1/1UPQwIISQUqAFX2qRfaFM+KdIIl6Lnwyokmt9aOwvRYdVlyY7occHIYQUjNVzq6b5RD7pU55rvb4Z0FLQ2uQJPWoIISS3hEN2pSTUY7WdrQfJnaLakL1LOyCGkd2PFQkJIWQGDIzYh+i3VUmg5+OTOEVlIOOu0+ZQ1ThZgR5fhBDiF43GtoGxz2x1fdNGLx4kbYrqggLjfqUnCXiskBBSagaGG4u0BK9M/FeiEzNF9VKtvSz2uAHjdkOPQ0II6RVzdENfaNyJfNqnqHQxcI5uHNRjrejBSQghmdNqutN8tTzx/xWdcCnKT9kbgti9O4h23xE9XgkhpGOqy1Y+uFWSlzv5KWqGurt15DVZjh6/hBDSNrWh0Uh3PrO9LkXNWut1Y6x+MkOPZ0II2SpBnOyZ7uZnAx6KykxBbP8YGvcS1hQghPjGnLQmf2x/i06UFFVkBcZernUytCQ2etATQspMFG1fjd1reIyPonor3VMji4F3LqyvCtFpgBBSJkZGttNjS2Fsr0InQooqs9LNtcYeyYUAIaS7PDDxX41OfBRFbaIbtagWawkQQrIlLdUrE7+x13iQ6CiKmlL2Kt0joJ/n0GmDEJJv+oK6Wx0Yeyk+sVEUNVPpvpy0uiBPDRBC2iU0bl925KOofCsw7i+1yL5QhvQcdE4hhHjO4NDoHqGxP0MnLiqD5B+7OwNjb57Q5fLry3RCaNWet+fIAu8X8ufOkN/7Q/prYy9I/4xI/tv19/+/6PugMomFc6uxezw6vxBCPKQ/couD2H5FksV6dLKiNlKrYdI/ROeJf34sE/MJ8nuf0Z3fNWNfq093tbp98uBw0thh+colXd0NPjKy3cCIfUh1yO4iC4PHBqb5LPnxv2QB8XbRJ2SS+bIWgRL9emKh8W+4/ahNJL75XhA3hrsWI4SQ/KB9ySUxvE+fFtHJqZyy68J0gre/SBdgMrGLDqzWk70G68kj8v4NVxvb1OKm1b0koXFvFn1WFgenyf1eLFqLt38JZdy9uoiUhcCD0PFBCMHQJ0+OL+LO/t5I+7/LBP8b7QGvxZOqsX1CLWoM6VM1OhCQ6BuFcMiuDOPmARKLH5HFwemMyZ7F5M014w7N+yKTENIGA8buPvH9F56ECinjrk37IRj3Ya3frq/MK9yE1RaDS3bbIe0rYZKD0qZSxp0ti4M74L4tooz7cy1K9kb7nBDSRWojowv0FezEa2d84imA5CnqCpmYvhrEzVfrq+5FixoDaD8Xl9Vzw2EbV03yfFkUfDptkMNYzkrjYtOv9ZvRh6G9TAjJmNYrVvdPDxJNfmXsfRM75o+qxva5TJZ4dA+LtsuVyevdsiD4kX5qgcdJjjVhv8N1sYX2LSGkQ3RnuExaP0QnljxKXzmr7bTpSrXuHscObHlg9Vz9xKXftmVB8HX9HIOOozxK367oyRK0Nwkhs6Mv/X7KJ6I2E196Bv44bW9cWTI2D+1E0jmDprlMy+OKf8+QBcE96BjLkdbrWFgQuRrah4SQGVIdbj6yteMcnkC8V7pAMva78qR/sL4tQfuOdJf5yxqDQZQ8W3z+BTa1mqnsVWFk90P7jhAyHVG0vSS29/ApZ6taIwukj+pr/bIfwys71ThZEcTuLTJuzuSGwukli+XjdSMx2meEkM0I681VksAuQicJXzVRCvdoLXWM9hXxk3DYLtRjm60jnGkFRnjc+id7vb5BQfuKEFKZqOSXHu1jCd/NNdHF8P36lIf2E8kX/fVVD5VFwGFaf0BiaBwdy97JuG+wkiAhQNISq2zVu4nSNqjypK9FZMREfWgfkfyjfTLSTYRcDGwme31okqei/UNIyVg9N4jtu/iasiWZ8G/R2ua6IEJ7hhQb7c+gx0K1ABQ67j3RuDaC0v1HaN8QUnjmL2s8XAbdzz0Y+HC12tomB/F8PgEwJy1AZOzx8iR8F3oseKA1/NRGSBfRjmpl78+ePu2nDXWYbIgfDO6653xdiIbGXYgeH1jZtfqppMJPb4RkhxbiaD1poAc4cOKfeNqvLB7tR/uDkKnQ6nm6QC1ze20tyTww3FiE9gUhuafVEc3+HT2oQYnkNv2+mLbNJSRH6FsBWQi8QTeloscRRMZdV4vtU9B+ICSfjI1tIwPpfeUsTmKvkgTyZq3ahnYDIR0h47hm3Av0DRZ+XPVc2mHwaJbUJqQNgmj3HWUC/IkHA7jXE//5Woil0mhsi/YBIVmjb/Mkvk8s26JeFgHnDsZuKdr+hHhPrW6bpXttqOertfkONw+RElAbGo30ybhMpwcC426qRe5JaNsT4i1B3Hx1aer4y30Gxn6xOmR3QdudEATVpclOMhbeJ+PgX/Dx2BPZdUFs31rhQp+QjVgyNq/VnQw9QHui9foalBv7CGmh5bxlYjyidcQVPj67LrnP7w0u2W0HtN0JgTNvqLlzYNzv0YOyVxN/OGxjtM0J8ZGF9VXhxELgVg/Ga3cXAcb9hW//SKnRdrRhbG9AD8YuS3cCnzpg3G5oexOSBya6En646LUEAmP/rcXN0PYmpNf06Uq/BLuBz2D7XUJmx8RpoA+nFfbwY7lbah0V5MkfUgZa7Xvtdz0YeF1TYNxpWhENbWtCioB+JtTqggVv/nWGFk9C25qQrqHlMYtcEEQm/kvkiWVftJ0JKSJhvVkPYvt99DjvWv6I7V/D5YlB25mQzKkONx9Z1JK+2qBIP2lURka2Q9uZkKKjXQhl3K1Bj/vu5BJ3UxA3Ho22MSGZUY3tEwq5szd9JWmP02+VaBsTUioajW21814xjw7atdW4+Ty0iQnpmDBKXhYady9+UGU9+bufVOuju6LtS0iZqY2MLpioKli0DcXj8oBxJNq+hMyWPg1gDwZSpgqMvZRHdwjxi8AkywPjfojOD9nLHqcNldD2JWTmRNH2sir/Gn7wZDoQ10qCeTuP6xDiL1WTPL9wtUWMPXnRosYA2raEbBV9JSdBexZ80GQ6AN3Z+oSBti0hZOtomd302KC+Rkfnjsxkz+83ow9D25aQKRmsJ4/QEpf4wZKNdOOi3M/BFTbvICR31KJkbxnDl6HzSGb5yNgr9Cgk2q6EbIEGpgTpP9CDJMPJ/1QtQIK2KyGkAxaP9k9UEyzIJkF7A8uKE68IIjcSGnsNfnBkMsCul4TxErRNCSHZMWDs7oFxf8Dnl86VHn2M3CjapoRUtOStTJj/RA+KDDQeGHu8NiJB25QQ0gXGxrZJawcYd4cH+aazRYDcQzV2j0eblJSYIE72DGJ7G3owdC57QxjZ/dD2JIR0n/TIYOzOxeedDhcBsbuzVrdPRtuTlJBqPdlL21miB0HHg8i407VHAdqehJAeopUEW3VK1qNzUEcy7p7ANJ+FNicpEdrwJv8tOuX668nrKtzhT0hp0TLlkguuxuejjnLZOu5bIj1Ba1TnvrSvcRdW42QF2paEEDwTdQNOgOelDhcBQexegbYlKTBh3Dwg5z25x7VuuFYqRNuSEOIX+hSd88+aWvjocLQdSQEJ6+7lYa4ra9mr9XUf2o6EEH/ReiZ5Py5YM/a1aDuSAjFRXzu3hTTSJiE83kcImQmNxraBsUeh81YHGtcHNrQZSQEI68nTcvzNf1yrgMltzEHbkRCSL/TBJ8c1A9bXjHsB2oYkx1RN84l53e2v9Ql4PIYQ0glB3BiWHHgxOp/NSvrgJg9waBuSHBIO2ZW53RBj3J/ZvY8QkgUL66tCySsnwfPa7HLhPWHc3AdtQ5IjWnWz7c3w4J2V7Ak7rVhRRduQEFIo+oLYHpHHvVBaMVDy+WPRBiQ5oFof3TUw7iZ00LYtY+/TAYq2HyGkuFTr7nFp6XB0vmt7EWBvq9VtE20/4jGtlr72enSwti97PVe4hJBeMBi7pZJ3zsPnvTYXAfJgVx1uPhJtP+Ihg/XkETKRXoUO0llozQ7LVy5B248QUh70M2MQu+95kP/ak3HXhcsTg7Yf8YjayOgCWR1eAg/O9oP5J1rGE20/QkgZWT1XK4vC82CbCoy9vLo02QltPeIDIyPbhcb+FB2UbQdx7P6fFuxAm48QUm60qViYs66CWu1w0aLGANp2BEufrAaPRwdjmxrXNp4VdvEjhHiCPJA8Q3fbe5Af25D9doVF0sqLBMAH8EHYhlpnWg9A240QQjanFjdt3jZRB7H9GNpuBMBEcx94AM44UI29uVpP9kLbjRBCpqJ1QiBflQNrxh2KthvpIbUo2TtP9f2D2F2mJTnRdiOEkK0xuOue80Njz0TnzZnLrgtN8lS03UgPCCI3IhPqLfigm6GM+3O/GX0Y2m6EEDJjdHN1jsoHa9n3gaj5KLTZSBcZGG4sEkf/HR1sMw7K2J0bRLvviLYbIYS0jx4TtF9B59E2Hraunb+s8XC01UgX0CMfMqH+Dh5kM16Rut9rfQK03QghZPasnhsa+wV0Pm1Da1hbpXj0SRB+14PgmuFK1P5sx5GxAG00QgjJgD55+Po0PK/O9OErtj+o8HhgcQiMfSc6qGYcfMadVlk82o+2GSGEZInWL0Hn1zYewo5E24tkQNU0n5iXFpayUDmlEkXbo21GCCHdoNVSGJ9rZ6BxycfPRNuLdIA2yQmN+6cHwbT1yT92X6uMjW2DthkhhHQTWQQcEuagdLCeFqsNjUZoe5HZsHi0X3fRo4NoRoFm7Bcr/OZECCkJQWRfpU/Z6Ny7VRl7AXsG5BBZZX4JHjwzktajXj0XbS9CCOklMrkehs+/M3hAi+3X0bYibVCN3WvQQTPD1eXJ7OhHCCkrQez+G56HZ6Casa9F24rMgDByo62mOfig2YrOqCwZm4e2FyGEIJF8/SEP8vFWHtbcvYGxj0XbikxDdWmyUxjbq+HBshUFxv2K5/wJIaSF5MRPoPPy1mWvZ1l2Xxkb20ac9HN8kGxl8o/d7xZEroY2FyGEeIQWC/p/6Py8VRn7S3629RBxzvvgwbH14PlTOGwXom1FCCH+sXquPGWfAM/TW5X9ANpSZCOCuPFo34v9BMZeOjBiH4K2FSGEeIs8XQex+x46X29F66t19zi0qYgwf1ljUCbXKzwIiqll7DXsMkUIITNgydg83ScFz9vTPdDF7ko2DfIAraCHDoatBMqdNdNwaDsRQkhe0E+lsgj4Czp/Ty+t4UJghHHzAHwQTBsg62QB8HS0nQghJG/UosaQ5NEb8Xl8Ghn3ErSdSsm8oebOgbE3wwNgGtWMOxRtJ0IIyStBnOwpD1Jr0bl8Kskc9O9weWLQdiobc8T4Z6GdP21gxO7jaCMRQkjeCepudehx86DAuN/zaGAPCWL7LrTTtzL5n8r6/oQQkg0yyb4dnde3kvPfjbZRKajVbVPLMqIdPs1q8A87rVhRRduJEEKKhOT9/0Hn9yll7H3hkF2JtlGh0YnV552hgbGXazlitJ0IIaRwjI1tE8T2R+g8P13+Z5XXLiIrwM+inTyN828PTLIcbSNCCCkqOsHKPPBndL6fWvZ/0TYqJGmXP383gozrRhW0jQghpOiE9WY9iO1tHuT9yecC4x6DtlGxGBnZTlZWF3ng3Mll3IfRJiKEkLKg9VV0soXn/kmkn6nZ6j1DZIJ9L9qpU0/+9qf6bQptI0IIKRNBbD8Kz/9T631o+xSC6nDzkbIAuMcDh06mfwTR7juibUQIIeVj9VxvNwUae99A1HwU2kJ5Z47HTSHursVNizYQIYSUlVbPAD+bwaUFglgPZvaE9eR1aCdO6dzYvhJtH0IIKTvabE0fyNBzwhQ6HG2fXKLtc9M6y3gHTqbPoe1DCCGkRWCSgzyYFyZ5UHR3DprmMrR9ckdg3A/RzpvUocb9gTs8CSHEL4LYfgk9P0wxZ/wQbZtc4WubX3HkHeGwjdH2IYQQsimLFjUG/C0S1DwAbZ9cUBsZXRB62gM6iN0r0PYhhBAyOYPDScPTU2M36tyGto/3+Fvu134bbRs0uuM2PZYZN/fRyodpm86ouX+1nuxVrY/uOrhktx3Q10hIkdExpmNNx1xYT562YRzKmNSxyUkm/RTwVvx8MYlkbkPbxmsGjN1dJtp1cEdtOflfXfaBJTb4xUxspSU6g9idKz9+Rf6fN1Rj+4SF9VUh+voJyRPa+Kxad4+TMfV6GU9fnhhTMyt/a+zP0NcPZo7Y4Ez8vLHFPLJO5zi0cXylT5z2S7yTttB6ncTQxkGiTxwd2dDY+/RMrOgT+tSy48hYgL4nQnxi4vv1vlrdTvTbtL1sB2Ou7I3J5g01dw6MvdmD+WPzRcAv5PL60PbxDm83/smARNsGjdjgY5naVZObcWfL33sEN1WSsqJVRGUcvER0YvZHnu0H0PeHJoiSZ6Pnj8lUi+wL0bbxCn0ilEnhGrRjtpz83bnaiAhtHyyr53bbN3q0Uos+VZcmO6HvlpBuMrjrnvMl3g/WBXDYxWY2kruulH9uDvp+0ejnE/Q8soUkn/It6EaIUd4Hd8qWA+jOsr9GU2qRe1IPB4Z+KjitVrcv0lei6HsnJBPkIULyyTMkxk8Ke1ixTvcQoG8dje4/Ettfhp5Ptsx17r1o23hBf+QW62QLd8hmqhl3KNo2PiAT8lcR9peYuCUw9pPh8sSgbUDIbOivr3qoLGrfI8n+OswYsl9C28AHwiG7UuyxHj2nbJbf7tS5D20bOJLkj0c7Y5KB85sKX59VKo3GthKot4L9oa9Jz9CjTmy7TPKAnkVP85px90LzmLH/4phpIXnsaPS8suU8476MtguUwaHRPULPVmaiu/nqv0UtSvb2wB8bJ7TL0zczi0f70bYhZFNWz63GzefpviH0ONlkzETNMbRlfEC/uUv++DvaH5tpvc6BaNvAkBXyTzxwwqYDJrbvQtvFF8QWx6D9MYVuDI09UjdUoW1ESk6jse3ETn4vS9DKguTjaBP5ghZLQvtjEp2FtgsEPfPqgfE3lXEXctf/A+gTN9wn0ye3W8PYfrC6bOWD0bYiJWPxaH/N2Nfqbnv0OJh2jBj3F7SpfEL89TW0TyaZd/ZF26XXzJHEfT7c8JvIrgtNkqAN4wsdF//pZZLTExux/WjZqzWSHiAPCPoZSvLF9ei4n/n4aAyjzeYLE7UX/on2yWZzz/mVMu0500IIeKNvNkiMPQptF5+QSfUtaJ+0n+jSkwPv0DKqaPuRwjFH85aXR8q2rtejjecT6ScbvE82kSwqX4C2S29Id5bbv6INvtnEcSULM2yK+OgHaL/MWrLC1yqDlSjaHm1Hkn+qpvlEiac/wuN61uPBfhdtQ98Qf/4I7peN5yBjL9W5EW2XrhNE9lVoY2+uWmyfgraLX6ye68HxvywG1eVaVKjC2ttkFkjsNLWxDjqOO5YsiCscA5swGLulgXF3wH2zSb5yB6Pt0l0Wj/b7VvJXN4WgzeIbA1HzUWi/ZOzjX2syR9u1p8hYGxixDwnrzbqeS2+dTXeP0adZlS56728lK/Z5+v2/r42v7v/z2l5Wm6osiFwNfTu9ZOI78edD/44oz1rVIbsL2q6+IXPRG9F+2VT26sqSsXlou3QNrfeON/JGE4OsAPvN6MPQdvEN3/yUkdZrUs/riYFWSdPGcGDsY/V7odzP4ZLAPqJtlyWOT5ffP0cm8r+F6RFJd08X7Deu3dX0G3h61l2ejLVKZFqtMU2kzQN08aATTW6PZ46NbZPu7Peyi1yHuS6yr0Kb1zv0c7Rxl6B9s7E0/tBm6Q6ysvHv6Z9n/idD/PQttG+653N3S6ibovz73jZn0DSXpd+bTXKQTOIfEn1zoo3yTWi7zcLOt04UxTlJu0mKDtG3Dmn3Rw+r01XryV4S939C261r/pDFGtrGPuLfcfSCvgXQlQ3euBsPCPt3VpSbnIknSbiPujzQLtZKhz03rkx++lo+MM1nSVJ+u0yMX29NlHYt3iY9kr6hMO5CbYOrBZ2qsX2uHjtF1ODQeuxyHd+A26T78X5Rr22bF2Qc/hDvnwdUvD40+vQvKxu0YTeWlu1Em8VH9FVz2MU2pb5J94B07bNAFG1fi5t2YuPr59Kd5N15PV8MGXufLgz0s4Z+htI9CxqPXfFNpTIniJuvlgeB2+H33RPZdXzgmZwgciNp7MF9tMFXVxXqBFM1dq/BG3WTRPPLCnfFToo8na6C+6fHSl+xG/vSSmcx0aeJRCavV8rf9QX5e89DN4MpiHTvxp/TCm6yKKiZhuv0843updAc4MG99VSl2wjbBhJfn0b7Z2Pp4hRtk2xodZTzqVzmet3hjDaLr+i3Wg98hNIZ+h1+RoZaMjZPn1DFXm+V+D41j9/p86qJ9uE/1zLQYWT3C4ftwhn5LN30Zd9Rqs8tm9rtFZ3khiKjVUR9GsM6Z3q4T6l9fKv6xx7Z0yNPW/+D9hF44N0pNnjzlhvVVs8NIzcqE8g75enxTPmzd6Ovldog/WS1Rlu+6pHGwSW77bB5XKdn+r0rP95bqX16lUfySKvEM95PG2TcS9A26RifKmjp9z49G422ic/okTK0n3yQbszTXetpUjD2u0UojFQe2XXir9/pSYpa5J6kpxDSXh/w68JK31Sh84vX6Abd2F6E9tNGWlPJ86fqat09zgMjbjQA7FvRNvEd7R6G9hNFUV2Qdjsl06ILRrifNlY9eRraJrPGq3ryxl3LXbBbpa+s30cpqujSwmfoBJMHZK74CdpXG3wW29+i7TEr0qMVHh0n05MIaJv4jlZFRPuJoqjuScsco/OM7/h2EiqIkz3RNmmbiaNQcOO1DOiuLNS5yi6hm9zQvqIoqnsaHBrdA51n8kBg3GloX22k76Dt0RZaWMWnV8l6NhttkzyQHqnywF8URXVHkOqXOUSPiof+vMFeX4saQ2ibzBi54Pd7YLRUgbFXIEqM5hE9doL2F0VR3VPVJM9H55m8IHPHKWh/3S9tuoW2x4xYtKgxoP2n0QbboCKcpewRYq/Xw/1FUVTXVJwKc91H+1OEnrSE1iPs85c1BtE22SoaYGhjPWA0d4kWcEHbJC/IYum9aJ9RFNU9sQNqe6QNqzzwWypjD0PbY2vMkZXKpXBDTYivu9qjVTAF7zeKorol+0F0nskTE6fZ/HgLENu/yiXNQdtkSmp1+2S0kTaSVlHy11geoqVCPfAbRVFdki7y0Xkmb6SNqDzwnUoLFaHtMSVaMhVtoA2BHiXPRtsjb4TGfRbtN4qiuqfA2KPQeSZvhMM29qiUtJ9HAvsjt9iXnsr6GaLCp/+2kQXA59G+oyiqi5JFPjrP5BFZAHwb7rvUf/Y+LdiGtscWyIW9B26cCWlLW7Q98ogE+XFo31EU1UVxATArvKoOaOyRaHtsSquL0tVww8Tp0/+/dlqxooo2SR7hHgCKKrYC4z6BzjN5RWz3K7T/Umlfm0ZjW7Q9NhCY5rPgRnnAOO9F2yOvyMryI3D/URTVRfEUwGzxaZ6Th7Wno+2xAe0zjTbIhO4eGLEPQdsjr/j0GYeiqOwlufq/0Xkmx8zRo3hoH6Yy9rtoY6RUlyY7+bL5T/Q5tD3yjPjxjR74kKKobqmevA6dZ/KMdpWF+1Alc64XD7uyonwL3BgtjWvRBrQ98gx7AVBUsVWr2xeh80ye8avUvX0D2h66c/xivCHSV1unom2Rd0KTPBXtR4qiuievC8nkhNCfZndrsIYYsis9MEKqat09DmqMAlCLmxbtR4qiuqfBodE90Hkm7+ird7Hl3Whfqmqm4WCGCI07Fm0AlTz9nwszQoFI93N44E+KorqjIG48CJ1nioDMOf8P7cuWP+0xGAs0Gtv68i0kMO5gjBEKR58E9p1of1IUlb20pSw6wRQFj95+36h1eHpvgMju58HN6+R/x4LI1XpugILiy54OiqIylrF/QueXIiG58ny4T0W12D6l5zcfxPbr6BtXyar2iz2/+QLjTc1riqKylXHfQOeXIiE2PRzu0zj9DPCVnt64ltqViS71HXIAACAASURBVPff6BtPFbnRnt58wRG/vgPuU4qiMpdMFEeg80uRCIftQnlgWgv3q7G36/HEnt24niVF33Qq4y7s2U2XBB4FpKhiikcAs8eXN+HV2D63dzdt7CnoG07FqlaZM3HEBe9biqIyVXXZygej80vRqMbu8Wi/TuikntzwjiNjgQ+vPUR380hLd9BuUx74l6KozGSvQueVgtLnQ38APb3Vky641bj5PPTNpjds3Fe7frMlRQL6+2j/UhSVnWSC+B46rxQVmYvehvZv6uO6e07XbzY09lvoG01vNmqOdf1mS0po3JvQ/qUoKlO9Hp1Xikr62dS4e/E+tid0904Xj/b7sPtfruFSuZq+7t5seanWR3dF+5iiqOxUHbK7oPNKkZEH45PRPk4LPS0Zm9e1m5R/4Jnom0xl7JFdu0mi9ImNr4H7maKoDGSvRieUouPLp/Ewau7ftZsMYvdl+A3GXM32Al9qXVMU1ZlYLK37pLVxPCij3k1fz5F/4Eb0DYboFoglITDNZ3nga4qiOpRMTM9A55MyEBp3ItrXcg3XyaXMyf7m6s1V8JtLg9m+K/ObI1uyZGyeJI5b0P6mKGr2knx5W1e/C5MN6C58tL9V2tY985sLY/tB9I2lAW2S5ZnfHJkUSR5fQvuboqjZi6//e4eW4/Vhk3xX9sjJX3oB/MZie37mN0YmR9s9x+4MvM8piupAZ+hYRqeTsqBH8dA+l0XIOZne1PxljYejb6p1Y+5tmd4YmYo+Pv1TVDHEtwC9w5OTcuP9ZvRhGd6UO9iDm/pPbWg0yuymyJToKyS0rymKyk7cO9UjWrVybkf7O4ySl2V2Tz70iJcA/mNmN0SmpGqS54u9x9H+pigqU433pFQs0Qfmr+L9nVlVwNVzZUXzL/QNBbF7S0Y3RKagGicrJHjvQPuaoqjspRvUqsPNR6LzTNGRuerpaF+Hxv2zksVxwNAkCfxmVMM27tw1ZCpqI6MLJEFcDvczRVFdk3auG9x1z/nofFNoWkeo4UWBBodG9+j4XmRSeCf6RsSYf8vALWRqdNPfD9B+piiqBzL25Ap7qXQVH/KpXMMRHd9IGNtfeHAjx2TgEzIFYuPXo31MUVTvVI3da9B5p8jIIuswtI9D437S0U1oYQP5S+6B30hk98vIL2QzBoeThhc+piiqh7Jrdc8POv8UlXB5YnzwcUdVIKuxfYIPN6GNFjL0Dbmf9MiKuwTvY4qiAFpTiaLt0WmoqOina7SPA2MfO+sbkCfD98JvILY/ytAnZCMkQD+O9i9FUUjZD6DzUFGR+fOzaP/qHr7Z30DszkLfgOj1GfqETNA63WHXeeBfiqJQMva+rjSPIZUwau6P9q88QP94dlcfRdvr63f4DbD5T/aMjGwnvr0I7VuKojyQsX9iv4Ds0U/XYt+7kb7Vui6z8q38j49BB2Zg7BVd8EvpkVXhW9G+pSjKJ9k3oPNSEdGd+HDfmiRp+8JlAfB2/IW7Y7vgk1Izb6i5M6v9URS1seSh4LaB4cYidH4qGjKHvQntW7mGN7d94fL0fQr6wrWkYhd8UmokGE5E+5WiKP8kDwb/h85PRUNLL6P9Kjqp7QsPY3s9+KLHtTxtF3xSWibKOrPRD0VRk2k8jNwoOk8VjD6tyw/1q3HXtnXFg6a5zINgXNMlh5SW0NgzPfArRVH+6ix0nioaQexORft1/rLGw2d8wTXjXoC+4DC2x3XRJ6UjrCdPw/uUoijfVYvck9D5qkgExr0N7dNqbJ/bxgXbo9AXLE+rL+2iT8pGn9jzArhPKYryXjJh/QGdsIqEVuPzwKefmPkFx+7X6AvWWspd9Emp4NM/RVHtqBbbp6DzVmFYPNoP77di3NkzvNrVc/G9jO0NXXVIyZDV36/QCYWiqFzp5+i8VSSC2P4W6c+0IJDM7Vu90OqQ3QUefMZ+twc+KQV+NHSiKCpvCuJkT3T+KgqBsZ/E+7MxvNULlT/4YvSFygLgjT3wSSmQld9pcH9SFJVHtX9+nExKUHfPQftTN/dv/UI9WKnwLGo21KLGkNhzPdyfFEXlUHbdYD15BDqPFYGBEfsQuD+N/chWLzSEdwC0a7VZTQ98UnjY7peiqM7EdsFZIQ/XlyN9OZPOgH0yadwCDbiZ71Yk07FkbF5g3E34BEJRVH5lb+ADWTbI3Po1qC+N++e0F6jVgtABJ6uUY3rkj0KjhR/QvqQoKv+SiesZ6HxWBMSOb0H7Uj9FTHmBevYTfYGBSQ7qoU8Kiw/lJymKKoS4GTADwri5D9qX1dg9fuoLNPaN6AvkBsDOCaLddwyNuxfuS4qi8i8tYjNsF6LzWt7pj9xitC9rxr52yguUBcAXwBc4vuPIWNBDnxSSmnGHogONoqjiiG9msyEw9maoL407duqLA5cAln//bz30RWGRhdxP0QmDoqjiSOuJoPNaERBb/hzsy6krPMJPAMTuOz30RSGpjYwukAXAfeiEQVFUoXT3gsjV0Pkt70hu/gzSj3oybNILGxhuLIIHmbHv6bE/CkcYNw+A+5GiqMKprZayZFKCyL4K7UfdI7blhRn3GPiF1d1zAD4pFKFx30T7kaKo4ikw9nh0fss7Qdx4NNqP4ZBducWFhXX3cviFsQVwp/SJHW+E+5GiqOLJuGvRCS7vLKyvCsWW42BfvniLC9OSj8iL0hbEchlzeu+S4jBg3G7wJEFRVGE1o45yZFoCY/8O9aOxR25xUbK6+wY0sIz7Q+9dUSxkEfcGdIKgKKq4qsbuNeg8l3eC2H4f6UOZa7+65UUZew40uGQBAvBFoRAfnoJOEBRFFVjGnYjOc3kniN2nkT6UBchvJ7sodBOgDwN8USjEhtfBEwRFUYWVzBNXovNc3oG/qd28KdD8ZY1BeGAZdzDIH4Vg3lBzZ7QPKYoqvvTIODrf5ZkgSp6N9uEmFXerw81Hoi+oVrdPBvok9/gQVBRFlUBRc390vsszg8NJA+3DTTZz+tAFMKw360Cf5B70KQ6KokoiFmzrCG2shPZhLUr23nBB2ugBfEHjlSVj84A+yT0yKE9GBxVFUSWQsd9C57u8Exh7O9SHdffyDRcjv/E+cEBdA/RFIQiM+ws8MVAUVQatQee7vBMadyHUhxvXAghi92Xkxcjk9SucKwrAyMh2bABEUVRPZNw9lbGxbdBpL8/InHsq0oeBsV/c6GLsj6AXE7uvAX2Re6pDdhd4UqAoqjwatjE67+UZmXOPQfpPHrp/uOFi5OnxAnBAvR/oi9wjK/J94QmBoqjSqBa5J6HzXp6RnP0mpP/kofvcjS/mWujFGPtfQF/kHq2hgE4IFEWVRzKBvAKd9/KMdr7F+tBeff+1zIF/P47sfkhn5B0eAaQoqqearKEMmTHy0PYYrP/cvXIZfZXqspUPhgfTZP2JyYzRPt1wH1IUVRptsomMtE0QuRG0D2sjowu8qAIYLk8M2iF5Br2Jk6Kockk72qHzXp6pLk12gvvQJMsr1dg9Hn0hWhkJ7ZA8E8Tud3AfUhRVGvHodoc0GtvCfRg1x3zYjLBOzDEH7Y88I6vxv6KDiaKoMslejM57eQddDVAeHJ+hk8croYG0eWtC0jayGr8JnxAoiiqNjLsOnffyjiwArsD60B6oNQDeiLwImbwuQTsi7+iOTnhCoCiqRLJ3ofNe3pEFwDlgPx7uQR8AdzbaETlnDj4ZUBRVMq1HJ768E8T2x1Af6lFOdElC7WKHdkSuWTI2z4NkQFFUycR+AJ0RxvYEpP8CY4/S78f/B74IniftgIX1VSE6EVAUVT4tWtQYQOe/PBMa91mk/7QJILyPfBDbj6EdkWe0mAM6EVAUVT4NLtltB3T+yzOyAHgv2IffgReRCYx9B9oReYYLAIqiEOICoDM82ID/Q72IX0IDybg3oR2RZ/gJgKIohPgJoDNk7j0M7MOz9A3AH6EXIUZAOyLXLB7tRycCiqLKJ61mh05/eSaI7KuQ/guM+73uRLwYfBEHox2Ra8bGtkEnAoqiyqeKdpMjs0ZbKkN9aNyFWozg79CLiJKXoR2Rd8SO4+hkQFFUidRqJ0s6QOz4YqQPZQFymb4BuB55EbW6fRHaEXlHBuM98IRAUVRpJJPHnei8l3eqcfN5UD9qOefA2JuhgVR3z0E7Iu/oYEQnBIqiyiPJObei817ekbn3mVA/ah8edST0IurJ09COyDviw1vQCYGiqBKJTdw6Rmy4L9KHOm9oJcA7kBdRq9snox2Rd8LYXgVPCBRFlUby9Ho5Ou/lnVrkngT24e06eaxFXkS17h6HdkTeETuuQScEiqJKpfPQeS/vVOvJXkgfpvs44K1k681VaEfkHe2o6EFCoCiqLDL2THTeyztB3Hg01ofuHn16XI+8iFrctGhH5J0gtj+AJwSKokqjwNhT0Hkv7+jch/WjXQc/Q14zDYd2RN4JYvc1dEKgKKo8koeOr6DzXt4JTZKA/TiuewDWYQOp8Wi0I/JOaNz/oBMCRVHlkTx0HI3Oe3kniJM9oX7UYk7oIjK6EQLtiLwji7gPohMCRVElkrHvQee9vKMb4LF+tGvhRWRqUbI32hF5RxZxb4YnBIqiyqTXo/Ne3sEfA3R3aDWi26GBZJKnoh2Rd7ScsgcJgaKokiiou9XovJd3wsjuB/WhVnNEV5GTf//paEfkHfR5UoqiSiYe3+4YdCngwLib9PXxP6EXwV4AHRMO2xieECiKKo0GY7cUnffyTjW2z8X60d6gG8iuRl5EzbgXoB2RdxYtagygEwJFUaXReCWKtkfnvbyD/nQbxO5KfQ1xKTSYjHsJ2hFFAN7UiaKokkieHEnHhFHyMqQfA+MuqYTGXgC9iNgegnZEEZBBeRE+MVAUVXTJw8a56HxXBGrGHQr3o0zAv8FehH0r2hFFQFZzp6MTA0VRxZdMHKei810RkJz9dqgfjfuVvgH4GTSgjPsQ2hFFQBZSx6ATA0VRxZdMHJ9A57siIDn7o2BfnqEX8X3oRRh3LNoRRaBm7GvRiYGiqOIrMMlB6HxXBMSWn8P60Z6ixwC/Cb2I2H4d7YgioBUV0YmBoqjii+Xbs0Hm3m9gfWlP0M1jxyEvIjDuNLQjisAOy1cuQScGiqKKr4HhxiJ0visC8vD7I6gvjfsf3QPwEeRFpBsRSBbMQfd1oCiq2NLS8ZJr+tDJrghIvv4d1p/2A7oT8W3gi7gI7YiigD7SSVFUsSXzxR/Qea4o6Dl8qC9j9xZ9DXEINqjs1WhHFAVx6NfQCYKiqOJK5ouvoPNcUQiNuxbqS93MqaV4sUFl11b4SikTxJZvQCcIiqKKKz1thM5zBaFPFgD3IH2pvQhk0mjugw6qcNguRHujCATGPhbuS4qiiit2AcyEINp9R7Qva5F7kjYkaKIvpFof3RXtkCKw48hYIPZcj/YnRVFFlF2njcfQea4IDBi7O9qfeg2VeUPNndEXIouQJ6MdUhRkkF6M9idFUUWUPR+d34pCaJKnov3ZX1/10Iq2dZRfjEMvxtgD0Q4pCoGxx6MDi6KoAsrYL6DzW1EIYvtKsD/HK43GthMX425BXow2RQD7ozDIID0Mnigoiiqcgsi+Cp3fioIsAN4F9aWx/3rgYoz7C/RiYnsM0BeFYsC43dCJgqKo4ikwyXJ0fisK2gMH68+N6u/IL34BDq6TgL4oGnq85J/oZEFRVIFk3LUVHtfODG3Eg/Wn/dmGi/GgIdBvgL4oHOLcb8ETBkVRhZEWGUPntSKhFRWxPrUnbHwxn4BejLHXAH1ROPDVHSmKKpJ00xo6rxUJmYCvB/vzoxtdjDscHGDjO61YUQX6o1AEcWMYnTAoiiqOBk1zGTqvFYUFkauh/Vkz7tANFxREybPRF1SNkxVAnxQO7bGA9ilFUflXYOwV6HxWJAaHRveA+zR2z9hwQbW4aeEXZJrPAvqkcGivZ7RPKYrKv2QBcBQ6nxUJrcGP9ulA1HzUhgsaGLEPQV9QENsjgD4pHFrnGe1TiqLyr2o92Qudz4qELKjegfZpEDcetPE1zZHfvBt6UcZ9HuWQQtJobIsu8ERRVL4VGHdTZWxsG3Q6KxLysPslqE9jd2dl8yOd6GJAobFnYtxRXMSnX0UnEIqi8iudrNB5rGjIXPdLsF/XbHFR4ugfYC/KXgXwRaHxYXMnRVE5VtTcH53HikZo3HVQnxp78hYXFcTuaHCwjbPVZLbo0crA2H/DkwhFUbmTzAm3VhaP9qPzWJGYaNkObb6ndX+2uLCasa9FB5wejwD4pNCgvzdRFJVX2ePQ+atoeHHiLraHbHFhPvQnZlvg7JHV3mPgfqUoKn+K3Cg6fxUND9oA/6cWJXtvcWHhsI3RFxYY+ymATwqPLAIuQfuWoqj8SDeFV9j8J3O08y3at4OxW7rllTUa24bG3QO9uI07FJHMkMH8dnTQURSVHwWxews6bxURse3Psb61ayuV1XOnurg10KDTM6ckc/ojt1gWV/ehkwpFUTmQ5IqB4cYidN4qIH0e1GY5b8qrC407ER18/Wb0YT10SGlAt3ymKCofYuvf7qCv3uG+Ne6rU16grPyORF+gbkbsoU9Kgw+7TymK8l8103DofFVEtAEP2rf6OXjqC6y71R5c4Nt66JNSERp3Ntq/FEV5LO7D6hqyAHg32r+bdAHcnOqQ3QV9gTJJfaOHPikVgbHPhPuXoih/Fdn90HmqqIh9T4L7d9jGU1+hBycBZIVyWe9cUjZWzw1i+1d4EFIU5aHsxRUe/esaYuN/gP1715QnAO5HJuBz0YGo7Yl75JPSERr7UrR/KYryT1WTPB+dn4rK/GWNh6P9Kw9/v93qhcoE8QX4hRr7zB74pKSsnisrwYvQPqYoyiMZ+ydJDnPQ2amoVOPm8/A+dsfO4ELda9AXKiuVj/bAJ6WFXQIpitpE/PbfVeSh9ii0jwPjDt7qhYb15ir0hWq/5B74pMz06esguJ8pioIriN3vKvz231Vk8v092s8zOt6pLWTD2K7DXqxdWxkZ2a4HfiktVdN8IjogKYqCa1yeTh+LzkeFZvFoP3pzvc7pM27trLtB4YFpkqTLbik9obHfgvuZoiiYWPWv+3jSkXXNzC84dl/24IIP76JPSKXVI0BW///2wNcURfVYMvZv76+veig6DxWdILZHeODrL7ZzwYegL1j7EnTRJ2QC7foF9zVFUQjxIasHhMaejPZ1YJKDZnzBA1HzUfgLTjsD8lhKtxkb20aPAKH9TVFUD2XchVr4DZ1+is/qufL0fTPa39X66K5tXrS7A33RuhDpml/IBmp125SEcC/a3xRF9UDG3seGP70hHLIr0f7WTz1brQC4xYXH7ufwC4/dW7rkF7IZsgB4L9rfFEV1XzIhvBOdb8pCENt3of0tOqPtC5dV4kfQFy7G+3EXfEImo9HYVhLDOWifUxTVPUlO/Y1+9kOnm7IQevAgHcb2A+1feD15mgcXvnbGZxdJxwRxY1gbRuD9TlFU1gpid+f03eBIlrRq6ri70X6vxfYpbV/84K57zpf/eT364quxfUIXfEOmIDD2v9A+pyiqCzL2QHR+KROhSZ4K93ls1y2IXG2WN2Av8OAGPpixX8hWELt/Du93iqIyk7GfQeeVsiEPU59C+z0w7g+zv4HYfTrXN0BmR6OxbWjc2WjfUxTVuSSP/5ql1XuPHrX0wPcfn/UNBHX3HPQNiNZXlyY7ZegXMgO0SmAY2xs88D9FUbOVcdcODDcWofNJ2Zg31NxZ7D+O9r8sAJ4+65uoLlv5YE9u4hUZ+obMED3Dmm4cQicxiqLalpb5rsVNi84jZaQau9eg/S9aXxsZXdDRjXjyGuPUjPxC2kT7hGvhEHQMUBTVhoy7d1a7v0km6BF2dAzIvHlu5zdi7CfRNyK6e2F9VZiBX8gsCOPmAaEHb4IoipqRxrnjH8f8ZY1BfPtfp4vAD3d8M5L894HfSKyvs5rPysA3ZJbIQvAd6BigKGoGMu7N6HxRZmrGvQAeA3FGR+gXLWoMhB4UMwhi+5UMfEM6wIe2lhRFTS0tPYvOE2VHFmDfRMeBFnTLrIheaOzP0DckT6D/YglLPPp0gY4FiqK2VGDc29H5ofRE0fayCLvNg1j4YWb3JH/Z29A3pKrWk70yuykya2RB+EZ0LFAUtUG6P+dwdF4glYpuvPQgHkT2DZndlLblxd9Q+hbgqMxuinREYJKDeDqAosDSNt5193J0PiAtZOL9X3hMiKpDdpcs76tPbuwq9E1pUYu2+xqTrlGLkr19eN1FUWWUnvPXevPoPEAmaFVQ/acHcXF55vcmN3Ys+sZUbA7kF9X66K5eLA4pqkySh6HBodE90OOfPEAYNfeHx0Wcnv8/OvubM25f9I2lN2fsFzO/OdIRWvZSgu536NigqDIoiO1vtFQ3etyTTZEHoRPQsaGq1e2Ts7+7xaP9PpSF1VfOmR1vINkxNraNFp5AxwdFFVv2ODb28Y+dVqyoBsbdgY4P/SykJxG6cpOyAPge+gZbN8miQL4iq88X+TAQKKpYsneFUfIy9PgmkyM+ejE+RlKd1LWb1KY8Htxgd2+SdEwQuRFZiZ7jQZxQVO4lC+rfh/VmHT2uydTouXt0nKTqZgnocNgu9OPol107uGS3Hbp2o6Rzxsa2SSsH6jEleLxQVA6luVbrufOVv9ekXXN9mBe1AVSn3f+2htzoT+E3quLZ11wQmiSRwPwzPF4oKleyF7GVbz6QOfEwfLyk++N+1PWbDeLmq9E3msrYX3b9Zkk26PnYevI67g2gqK3J3iW57ciubeQimSN+Ow8fN+kGwP/q+s0OjNiHSJCuQ9+sKutqR6S7DJrmMlkEnIaOG4ryUUHsTh2M3VL0OCUzJ4zcKDpuWrLr9FNEb25anr7xN8zSwHlFEt0zZCFwCTp+KMoP2YvCyO6HHpekfbQuDT5+nL4RP7NnN+3NNw/tELhkbF7PbpxkR2uT4CGS/K5HxxFFQWTctdpTg11O88mCyNV8+aypn+Z7duPVpclOXux6TNU8oGc3TjJnx5GxIIjdf8ti7mZ8LFFU9yWTxk0S7+/U4jHo8UdmT+sBBh9Puvs/iHbfsdc3/yP4jbf0857eOOkKuhDQjYL6VORBTFFUN3SjbvCbv6wxiB5vpHPkweVcD2JKd/9/v+c3L4H8UvSNT2g8iBvDPTcA6Qr6VCQ+fb08IV3hQWxRVMeSieIy/Wy6aFFjAD2+SDboEU10XN0vrb7acwMsrK8K0yMrHhggMO4TPTcA6TKr52rJZ/HvWej4oqhZydifyeT/dAnmOejRRLIlNO7z8PiK07nvDn17ijLCN9EGaBnB3pzH72latalaT/YSJx4sieLj2uhDbPoN0Ynafll+/226xyGIG48u89PDQNR8lNjmf8VGt6JjjaKmk8ToLTJ2P1uNkxXocUO6g1bE9aExXive7NdxhojsfmgD3K9q7F4DM0Q7aNe8unu5tvSU614/43vUjR6x/a0sdj6pfafLWChEF0Fih5eErbcC4+iYo6gJjevTfvoqlp1KC4/k4Hd4EHMTau6Ds0SrBawXm7ZkcvxrxfNXbenKURt7ZHK/7ha55y/VomTviuf33Q20YEr6hsTYC9CxR5VW52m/ix2Wr1yCHg+kR4yMbOfLnBfG9mr9VAq1hyTgj+AN0dLE9zZvkWv8XFfu29hL0/PEJa2JIPe+XHdXy4A4Hx2DVOElk757N7vzlROPNr+L7AfR9qjoDny8ITboLLQ9pqP7x0a0qI59Q5m7h+nTWM24Q+XJ7MeyUr/Hg5ik8q279cizFlqZv6zxcHR8EywePWSMh8sTg7ZHSmDcrzwwSKrB4aSBtsdUyJP68b2wQfpGwPO3Ib0grS1g3L5aMjott+pBfFI5kHEXpntt4uY+edxcTLpDNbZPgMfmBtlfoO2xAVkhvxJvkJZkMfJVtD2mYsDY3XvZSEn88oP++qqHou/bF9QWVZM8XxZHR6d7MYy7Fx2vFFgPbK49ShL8cweGG4vQcUr8RAvuwOP1fkXJy9D22ECrnKu9DW6UiQHdb0YfhrbJVLSO+/XOHtovoWbcC9D37SWLR/tlIfAY3cgldjpFFmc3wOOX6rLs9aGx35U88eYgTvbkrn0yEyY+dXtx8kiPQ3v3ZkoG1WfQhtlgIGM/ibbH1KyemyagngeN/VJZNwm2Q21oNKrGzefJRPEBXRSkVdw8GfhUW1ovvvubjLWT5efvV5/WosYQOr5IPpFY+rIHMZ1KruXTaHtsQXW4+Ui0YTYy0J3asAhtkynRJ8/Y/qDndjHu9/OGmjujbz9v6Buummk4/dQli4JPydPjT0TXoeOcmlDrWNYZuvCXsf8KLdPq3RMSyS26cPSn+Z37T3XI7oK2yaToxgS0ce6XJOuPou0xLa0aCr0vJykTl1bWQ99+EdBJRiu+yaTzDEkQb9QKcLLIOl03YXJ/QaYxe0/rqKs7XW2sJ13U5tX66K6c6Em3kbH9BfgYeED+Nr/TSlgeGCiVJIx/B3HjQWibbA39/tzr1aXu19Adreh7Lzb6qccdix4HuZdM+PBiJ6S0DNaTR/i0mK9F9oVom0xNFG3v10YqDwolzACt9S9PNFf22D53y4Ltyeh7Lypi3/fh478gMu69aH+ScqI9SODx/4Bu9L4EfFolC2+oVIGxt2vDHbRNZoJeZ683B+peiXQnNMkU3UCIjv2iKYjtx8S0fWjfkvKg+6W8KiaWh4VwEO2+oy9tgnNjtI3Q4iPa16B3idXdOjg0ugf6vouCLOIOhMd8QRUY93a0f0l58Olkmy5EclOjwqdvn+kEt2S3HdA2aYslY/Mmeiz06vjZjVpPH33beUc/5Ygt70bHfIG1vhbbp6D9TIqP1pKRB9m1HsR8Knko/AraJjMmHLZx2E6r227LuA+hbTIbNNnJ9d/YmwBzV+Zh06SvqO14NLAHcWrszTzPT7oN5ITWNMrdW1pEsZupZe/yuTrgHczJJgAAHI9JREFUdGj5Wpmcf9cjW53BHdezQ+L9W/g4L4mMvcD7zVAktwSRG+llyfYZyN+jf1Ohm8s8MNzGSeMLaJvMFj3rHBh3Wm/slM+3JUi01DI8vkumwNh3ov1OikmrLDg+xjfEel4buwWx/Q3aeA/IrtOVHdoms6bR2Fa/A/XAVuNhPXka+nbzQjhsF2q/BXx8l032rsHYLUX7nxQL7x5cY3uxXNYctF1mRVB3z8Eb8AHpyg5tkw7p600zIXuDnuZA32weaLUaxsd2GaXd2dD+J4VC8+uv0XG9iYw9EG2UDlg9N23IgTbiJkkj/+fetZ1tDwLvW+j79J1WjXCPzgmXULl9PUq8IzDNZ6HjeTP9Q9/8ou3SEdXYvcYDQz6QMIz7FdomGdAnT55fZHLFIpP/ieh4ptyaSl5fkRJ/GBvbRuaGSzyI5431erRZOmZiA9tNHhhzg4IoeTbaLh3TCtjTu2onY//OZiuTox25QrYJ9kJB3a1GxwPJNzXjDkXH8SYxLXOmdiFF2yUTdMcu2qCbGtf+XVvyou3SKQsiV9MjUV21l7EfQd+nj/TiDQw14/F8DjoeSH7R/U5aXwIdx5vEdGzfhbZLZuhKxq8mQU4ntiPRdsmCHZavXNLVNyzG3jdg3G7o+/SJ6tJkJ5+qhFGienMVOi5IPvGt6E8Qu1tyV712a4iR34w27Kaya4tyjCiM7H5hFysvymr0t/rJAX2fviA2eT8+fqnNYvTr6Lgg+aNWt81u5s5ZxnJxnv7vZ9GixoB3pVKNPRltl6zQ1sfdDUr33+h79IPVc72LY+o/Whdg/rLGIDo6SK6Yow83+Nh9QPoporBxLBPuYWgDb67CNBfRQkHGntM1Wxl7Xy1uWvRtoqlF7knomKUmlyxSX4GOD5Ifwrp7OTpmJ4nhAj9oaZe72F6FNvImBjfuL5WRke3QpsmCIG4Md7MVsywwLq+NjC5A3ycSGaBfRscsNaXOQMcHyQf6jd23fWmFfvq/H5lwD0YbegvDx/YItF2yIqwnr+tukLrTKmU9d714tF9i5TZ0vFJTyLh7C7d5inSFnhRTa1OSW96Ktkv3kadtfZJEG3tTw7s7i9NidPVcmaT/0GWbvR99lwi0fgQ6VqnpVYvsC9FxQvwmNEniWbc/Xbxeq/vk0LbpCWGUvAxu8C0cYM+US+tD2yYLBoeTRrcDXCs8ou+z18h9fw4ep9S00oZZ6DghHiMPoDLZXoiO00ni9hC0aXpHq4rdX9BG39IJxdlE1PVXXMbep8cP0ffZSwJjr0DHKLVV/QMdJ8RfJC++24MY3URyTZflvuZ/u9Tq9kVow0/iiFv7zejD0LbJAv0W2oMSzHeHUXN/9L32gnDYxuj4pGamQdNcho4X4h+tTdKSszyI0Y2lcyHaNgjmyIR7Ltr4W8p+G22YrJB7eUMP7LW2MEcppyGIm6/GxyY1Q70YHS/EO/TM/288iM1NpHNgpaybqquxezzaAZM6xTSfhbZNJkTR9j3acHl3zbgXoG+3m2h7ZHRcUjOTfv5Cxwvxi26fjpqtdA5E2waKDNbvoZ2whYy7tijHiXr4qWW8yMdY9DsdPC6pGakgLb9JRgzWk0dITNyBjsst4lTmPrRt4KTfZYy7F+2MLZOIPR5tm2xIjwX2sM+1PWFhfVWIvussaRUNYevfvEjG7r8rBTnRQzpmjsTEWeiY3EI659WbdbRxvCA09jNwh0yiamyfi7ZNFoh9D+xxcP+5SB0Eq/VkL3QsUu2pP3KL0XFD8MhT9lvQsTiZgtgeg7aNNwRx40G+9WNOnWTsvwpxKqDVJ+DvPbWfcfekXa0KcLxF7uf16Fik2pMs3p+AjhuCZcDY3TUPoWNxc+lcp3Me2j5eUTPuULRjppDWF8/960TYLnZjL9AnaPT9z5b5yxoP1yJRHsQh1YaCyL4KHTsESNp3xq1Bx+Fk0rkObR7/GBvbRicLtHOm0OFo83SKlpkEv2U5qTpkd0HbYUZE0fbVuPm8ILY/Cj3rFU7NVPYD6DAiOCTXHYWPwUnj8nzdl4W2j5eI0x4bernZyq7NzeQ1DWLfT4JtuT407sRa3TbRtpiEPm13HMTu0/rpBx9zVCfSro3ogCIYalGyd+jlPOLGdY5D28drZOB+zQNHTSJZucmTIdo+nRAuT4wvA0P8/Dvtxw1tf5k+6dsn6IYcuaZ/oG1CZSjjfgKLKwJD25VLrr4aHn+TSOc2tH28RzfdySrpdrSzJnWgsUeh7dMpgXGno+24qexa+fE72iZaj4R29eZHRrarmYbTncH6el+7QOLvn+qKjL2gq7FEfKRPcvQp8NibRDqnFWJDeS8Qgx2OdtgUGs97lcCwnjzNAztOk7jddaJv6EaZWuSelLZpbvckgTzZa+3+Wt0+Od38aNzn07LTHtaboLoj8feVXRpCxFN8PfI3odzvI+shq+fKE9ofPXDaZInl1nRSyivpZkt3LdqObcnY+1qV+Owv5NdnyK9P1r0EEiNfkh+/KT/+QP9bq7dE+vqPG/dKLomJ29BDjfSOwLjHpB1KPYi9SWLxj9z41ya6UazbPe1n71B3rh4zQdtotsg9vA9tQ4rqssYrZW2yUjKqy1Y+WCb/azyIuUlk13m66dl//D3KkTr2f9H2mS3pgIntXXgbUlT3lOdFOpkx2uXvx+hYm0oyh30KbaDcojXlZaK6Cu3EqZTnPs4TO9/hNqSobmlB5GrocUa6izz5vwcdZ1PLXlW0vig9J4zsfnhHTi5tOhKYZDnaRrOhujTZydfTFhSVhVhutdjoJt/Q5/0+MnehbVQIAuP+D+7MqZKMcZfktXVwELv/RtuPorqlgRH7EPQYI92hNjQa+VywS+cstI0KQ1rcQY+HeeDYKZz9wzzu8kzLA7PPPVVQDQw3FqHHGMkeLR4WxvZidHxNLXt9OGwXou1UKMKouT/esVNLJtKPo200G6p197jQk+qAFJWluAAoJHMk156Kjq3pFETJs9FGKiRaIAbt3GkdH9tXom00G7RuOtp2FJW1uAAoHpJjP4aOq2ll3DfRNiosuqnH3/Oeqe4Oh+xKtJ3aZXDXPecHxl7ugf0oKjNxAVAsxKcvRsfUtDLuuiDafUe0nQrNRKcnf3d+xvb6eUPNndF2apcB43abqMvvgQ0pqnNxAVAcBoeThue1S8ZlAbAv2k6lIDDuEx44fEpp6cedVqyoou3ULtXYvQZtO4rKSlwAFIP5yxoP9718eREaxeUHbfYS2/PRTp82IGJ3qtbdR5uqXWTx8hW07SgqC3EBkH/086Tk+ovQsTStjP0Tq072mCByI963czX2C2g7tU2jsW2ruY4H9qOoDsQFQM6RSXWiARg8lqbR3dU4WYE2VSnJwytrLbaDtlPbLB7tl8XLL9G2o6hOxAVArpkjOehb6BjammrGvhZtqDLT5/uZ0FA3h9Tdy9GGahctZOH9qzeKmkZcAOQXyetHo+NnawqMO00utQ9tq1Kjxy58rhLYkl0nAf10tK3aRRcBct2/xtuPotoXFwD5RHLOW9CxMwPdyFLTnhDGzX1Cz6vZaeOgPPaF3nFkLJCV7ulo+1FUu+ICIH/UIvvC0PNcHvLIn3/k4ZVRGNsbctk9UDcGGns83n4UNXNxAZAv0nLvxt2LjputytjPoG1FNmfJ2DyZpM6BB8fWg+eaWtQYQptrFvRN9N72uAgTRT0gLgDyQ6vAm/+FyORB81zdJI22F5mEtGBE7G5EB8kM9I/BevIItL1mQzV2j0+7XeFtSFHTiguAfBDWm6v0Eyk6XrYmucabB01zGdpeZBqqpvlE3XSHDpYZBNOleU1Q/Wb0YdoCGW1DippOeR1fZaJmGi6I7W3oWJmB1tdi+xS0vcgMkIB6qwcBMxOt0QZHaHvNkr7AJAcFsbvVAztS1BbiAsBvtP+IPlWj42Qmkut8J9peZOb0hcadiA6amcmeXxsZXYA22GyZOCqoGzC5N4DySlwA+Ivkjdj/49stSX77nlzyHLTNSBssrK8KJcD+jA6emQWY/e3gkt12QNusE8LIjYbG/gxtS4q6X1wA+ImWcfe9uc/90k+185c1BtE2I7NAj9yJA29HB9GMAi22f8zx54ANpHswjDsbbU+K4gLAPwaM3T3Mx0ZtrfR3R3W4+Ui0zUgHaAW+0P/CEhOyF/fXVz0UbbMsGBwa3SOtHWDsfXi7UmUUFwB+MTicNGRSvQkdFzNVNW4+D20zkgHyRPphdDDNVDJALumP3GK0zbJCk3BYT17ne/tmqnjiAsAfgrjx6Jzs9k8lefgTaJuRzFg9V5x6BjqoZhx8sfvbDstXLkFbLWtqcdPKQuCDco9r0Damii8uAPxAa4fo63R0PLShsypjY9ug7UYyZHDXPefrK3YPgmtGkkXAlbWh0Qhtt26h1RCDyL5Kngq+Ln65Gm3vDXY39nL58ST58R2hSZ7aWrTgr4tqX1wA4Gn1abF3oWNhptJNf3qyCW030gUGY7c0V1XsjL2mGicr0HbrBeqbwDSfJfd8ZNiagC+VH+/u0iDXjaHntY6K2g/Iv3lgOGRXTnYSQz/HwOOAmpW4AMBSM+4FMsbuQcfBjGXcP4v80EUq91eecnfCg22G0kI71bp7HNpuIPrSPQSRGw3q7jmBcQcHsT1CBuqHRMfK5H1ca6OhTOQTkl9/Uf7MMbrvQ/7823T/gW7mkZ8/Rs8e77RiRbWdC+ACIL/iAgCHjM03hLmqDWLXaklitN1ID9BWjnkoF7xBsorW1TTabmWEC4D8igsACH152nQ9ofFa3b4IbTjSQ8Tph3sQeG0FaRC7t6DtVja4AMivuADoMSMj20mO+hra7+2KebWkTJSwhQdgm8F6dIVlKXsGFwD5FRcAvWPHkbEglw3CjPs82nYExuq5obEnw4OwTclA+6quttHWKwNcAORXXAD0hnSfjm6q9cDn7Ujy6Gk87ld2Fo/2B7H9DToY25ZxZ1eXrXww2nxFhwuA/IoLgO6TdvSL3ZVoX7ct4y5kjX+SEkS77yiLgL/Cg7JNycC7rDpkd0Hbr8hwAZBfcQHQXdKTOTk6UbVBxl4zb6i5M9p+xCPCerOeqxoBE0rLa0Z2P7T9igoXAPkVFwBdo2+iXkdOeqw8IO1FwAY/ZFKq9dFd89SsYiON64BE26+IcAGQX3EB0AWWjM3TPUho385G+rBUq9sm2oTEY7RdZRC7W9DBOjvZE3RPA9qGRYILgPyKC4Bs6TejD5PJ/w9ov85G+qkiMPaxaBuSHKBV43L5basV6L/WgYq2YVHgAiC/4gIgO4KoORYadx3ap7OTXVs1zSeibUhyhAZMWh4SHryzkNa0jtyT0DYsAlwA5FdcAGRCX9rO27h70f6cnew63ayINiLJIRL4T8tv4Ou+APfhCosGdQQXAPkVFwCdsSBytdDYb6H92IHWs4Q66YggSp4tg+A+D4J5djL2p9WlyU5oO+YVLgDyKy4AZs9A1HxUELu/oX3YgcYDkxyEtiMpADKJvjTMVWerzWWv0na3aDvmES4A8isuAGZHaNxL8roHaoOMfSPajqRA1Ix9LTyoOxoQ7h4ZFIfJrfShbZknuADIr7gAaI+F9VVhENuvoP3WqbQNONqWpIDI4DgkzPWbgPQs7I/666seirZlXuACIL/iAmDm1EzDBcZeivZZpwpi9260LUmBCePmAbneE9DSjTJQno62ZR7gAiC/4gJgBoyNbSMPBUfkeLPz/dKqhIejzUlKQDW2zy3AgPmPrPiP1zaeaHv6DBcA+RUXANMzWE8eIQ8zv0T7qXPZdfJA8wq0PUmJkAXAvrmtE7CRZBFweVhvrkLb01e4AMivuACYmnSjn7G3o33Uuew6vRe0PUkJ0WJBgXF34AdBhzLuXkkG72Bv7C3hAiC/4gJgS/RIsNjmJLRvMtLdWqsFbVNSYmpx08rk+S8PBkPnMvYCNsvYFC4A8isuADYlqLvVWiUU7ZcspMcUWe2UeMHg0OgeRRlY6QZHrSC4ZGwe2q4+wAVAfsUFQAu1g4zr76L9kZVk8r81iBuPRtuVkA0EJlkexvZq9ODIbpDZv1bryV5ou6LhAiC/4gKg0jfxrf9mtC+yUnovJknQhiVkC8LliZHV6WXoQZKh1sv9HF3mkwJcAORXZV4A1IZGI3nqPxPtg2xlr6oONx+Jti0hU1JdtvLB8vT8G/xgyU6y6r4ijJr7o22LgAuA/KqUC4Ao2l439Oa+lO+WOo9tzkk+kEEoq9UTPBg02cq4n+inDrR5ewkXAPlV2RYA1dg+QfLOxWi7Zy15oPqxdiZE25eQdugLjT0SPXgylx4ZLNFnAS4A8quyLAA0RrWoF9reXZGxX6g0GtuibUzIrJDV6yuLUDVwS9mry1CAgwuA/KrwC4CRke3CevI6mfz/jbZ1FzSuD1BoExPSMaFJnlrQQZq+nivyZwEuAPKrIi8AtABOELu/oW3cHdm1Wm4dbWNCMqNaH91Vgvsf+MHVFa3XV5BF7DLIBUB+VcQFgBYeK97u/gekRdUC4x6DtjMhmaMTpKzaz0UPsq4NXt15bNyH5y9rDKJtnRVcAORXRVoAyJh6+MR3/nG0Xbul9I1GvVlH25qQrqG7WYPY/gA92Lore0PNuEOLsHmHC4D8qggLgCBuPEgm/qNkYX0P2p5d1lnhsF2ItjchvWDOxAmB9R4MvK5Jqwlq/XG53z60wWcLFwD5VZ4XAIsWNQZk/LxVy96i7dhtyQLnk2xERkrHxObAwpTpnFLGXdg6MbB6Ltrm7cIFQH6VxwXATitWVHVnv4yXa9H2677sXfIg9FK0zQmB0fq25/6AH4w90Zq8LQS4AMiv8rQAKNfEf3+vkdFd0XYnBE76us+4r6IHZe9kL6oZ9wK59Tlo228NXaDh7UXNRnkoHasFtWQyPEKu90a0vXqlwNhTirRRmJBMCI09rJhFg6aQcX+WH1/s82bBWt024XaiZqVqnKxAx89U6AQoi/63FaaN+Mykx4XfWcnxniBCukoQJ3uW5TXgRvqH3PObB5fstgPa/pujBVc8sA81C9WiZG90/GzOYD15hEyCnxLdjrZPL6Xn+2uxfQra/oR4TxDtvmNo7E/RgxaQJP4dxvY4n84CB7H9GNou1CzjKbZvRcfP/QxEzUel5/iNvQ9tF4DOGzTNZWgfEJIfGo1t5an4Q2HBjwpOLrtO9G1ZCKxCu2HiM4UHNqFmEUe/AIfPnIk3SD/H2wIiref/mcri0X6wHwjJJ0HUHAtid6UHgxkieYr7bXpUCJBEqqb5RPT9Ux1InrYHY7e013GjBW1k8fGGwLi/wG0Ak71BFs/79tr2hBSOiQ1D/4cf1DjJQuA2/TwwYOzuPTL7HPk3/4i+b6rDuJFx06N4qQwOJw2N0bQktgf3DrN5bH9cxL4ghEDRM/StiRA/yLEJxv1anu4O1OOT3bJ1YOw70PdJZaL1Qdx4dLfiRDeu1ox9bag1LvD3CpZdq7aocJc/Id1BX2mmEyB8sOMldrhFFkTH1EzDZWlj+XtfEZZy70VBZew1tagxlGGIzKnWk70kTv5f2Z/2N7Lxn6rDzUdmaGNCyKSMjW2T9hIo547iSSVP7JemNhm28WzN2irIZD8VFrjjWmkli4BON5XqBDexMbeobb1no3FtVlRZMjavE9sSQtokHLIrZfBd7kES8EqBcb+XHw+faSnYhfVVYRA3X13mzZalkC6Yjfuslnee6RjTb9ny/71R/v/z4Nfvm4y7jmf7CQGi7YVlIB4b8ql1Etl1uiFJ9C7dP6HJKt3Zb5KnhnHzAPkz75fFwun67RJ/rVSP4+JHEhNvqtXtk4O4Mazn1FMNJw1ZVD9TawjInz2jdSQVfb0eyrgTtV4JOv8RQipp3/BHS7K6GJ4YKIoqsOz1Qd09B53vCCGb02hsmzYWMe4efKKgKKpQ0qf+uPEgdJojhEyDttkMYvc7eMKgKKoAsleFkd0PndcIITNnTmCSg8rWdISiqMy0Xgsb6T4jdDIjhMwC7YkeGvtdD5IJRVH50XlZ19cghIBId72Xq/c4RVFtauKN4eGVyuq56JxFCMmQwV33nB/E7mgebaIoanNJbjh1/rLGw9F5ihDSRQaM201bpaITDkVRHsi4P9eiZG90XiKE9JAwau7P6ncUVU5pL42wnrxOS4ujcxEhBMCOI2OBPAG8l01NKKokMu5ebaLFM/2EkJT0tEBsj+P+AIoqtM5g1z5CyKQMDo3uERr7Mw8SFUVRmcleFMbNfdD5hRCSA0Lj9pWkcT4+cVEUNVsFsbtMjwDLkJ6DzimEkHzRF9Td6sDYS9GJjKKotnSj9gWpRNH26CRCCMkzjca22k5XFgJXeJDYKIqaQmkhH+M+vLC+KkSnDUJIkRgZ2U77C6TNQTxIdhRFtXT/xK/FvtBpghBSZLgQoCgvtGHiX7LbDui0QAgpE1G0fRA3X81iQhTVWwXG3RTE9l3s1EcIwTKxR0AS0xp0YqSoQsu460Jjj5y/rDGIHvaEELIxfVpeWJLU2fBESVEFkjzt/zUt27tkbB56kBNCyLQEcbKnJK7vsLIgRXWks4LYPb3Cc/yEkLwxGLulukkpMPZmD5IpRfkv4+4RnRhGbhQ9fgkhpGP0XHJo7GHpq0x0gqUoL2Vv0MZcAyP2IejxSggh3WBO1TSfmD7hGHcvPulSFFaBsefosdrK4tF+9OAkhJCeMDDcWKTlSiUB/h2dhCmql5K4v027b1bjZAV6HBJCCI6xsW3CevK00NiT+VaAKrDGZdL/hcT5gTutWFFFDztCCPEKLWXaqjLozvMgYVNU5zLuWt0IGy5PDHp8EUJILqiZhpOnpc+km6PQSZyi2lAQuzuD2H49jJv7VCqr56LHEiGE5JTVc1t1BexxrW+n+ARPUVsqrXlxhlbFZDc+QgjJmsWj/dW4+TxJtCfpUxY+6VPllkz6xp7Z6onReBB6eBBCSDmQxYCWHg6MPZ5vBqjeSSd9d7aW5tWTLOhhQAgh5WbJ2LxWHwL7hbRhCnySoIokWWT+O9TS1sYeWBsZXYAOd0IIIVNQHbK7aI2BicZE4+gJhMqfZNK/Qved6MJSW1+jY5oQQkib9NdXPTSsu5dLMj9BEvuN6ImF8lPpzn3jTpen/DfqAhIdt4QQQrJlzuDQ6B4Tbwd+IouCteiJh4JpvUz658qE/5FqbJ/AVruEEFImxsa2GRxOGmlJ4tidKrrVg4mJ6or0mJ69KD1OWnerw2G7EB1+hBBCfEHLEkduNDTuTWFr09c1+ImLmo0CY28X//1Ufv5+LcjDs/mEEELaYt5Qc+dqbJ8rE8ondVNhYNwd6MmN2lxpEZ41QWy/pKWkq/XRXVmBjxBCSOakGwtbxw6P1E8HMgFdj58ES6K0YZS9SOs/6Fl8rRLJ5jqEEEJgpI2MZDLSJ1BZFBwdtsrCsiZBhxO9/HhiutCqu9Wt3fl8sieEEJIDgmj3HcMhu1ImtRfLRPYeWRx8LYjtb2Vi+yd8koXL3iU/rtFW0GKXj4tdDqlFyd6DsVvKiZ4QQkhhWbSoMRCYZLlOemmtAn3SNfaLgXGnpUfUYnt160kYPVG3L7mHm+T6L5afn6Wd8UQfk/s7TO7r6elRTFkYoe1PCCGEeI0eWdOFgiwOHisT6DO0JK1MrIdPLBiOksn1K+mr8vSzgz1Tfu8c+fWF8mcv0/0J8uubN9Ltk7xuv2ezP6O6XP7ev+rfJX/Pr/Xvlp+fkhZUMu5Y0YfS45O66S62z9VFzEDUfFS/GX1YpdHYFm0zQsj0/H8eZXfKkBmUtAAAAABJRU5ErkJggg==;" vertex="1" parent="1">
          <mxGeometry x="260" y="49" width="82" height="82" as="geometry" />
        </mxCell>
        <mxCell id="IrCGTTobbULhzL_yWjzC-8" value="" style="edgeStyle=orthogonalEdgeStyle;rounded=0;orthogonalLoop=1;jettySize=auto;html=1;endArrow=none;" edge="1" parent="1" source="IrCGTTobbULhzL_yWjzC-1" target="IrCGTTobbULhzL_yWjzC-7">
          <mxGeometry relative="1" as="geometry">
            <mxPoint x="100" y="90" as="sourcePoint" />
            <mxPoint x="270" y="90" as="targetPoint" />
            <Array as="points" />
          </mxGeometry>
        </mxCell>
        <mxCell id="IrCGTTobbULhzL_yWjzC-7" value="Commit Code" style="text;html=1;align=center;verticalAlign=middle;resizable=0;points=[];autosize=1;strokeColor=none;fillColor=none;" vertex="1" parent="1">
          <mxGeometry x="120" y="75" width="100" height="30" as="geometry" />
        </mxCell>
      </root>
    </mxGraphModel>
  </diagram>
</mxfile>
